<svg width="25" height="28" viewBox="0 0 25 28" fill="none" xmlns="http://www.w3.org/2000/svg">
<path fill-rule="evenodd" clip-rule="evenodd" d="M21.63 0C22.0078 0.000918136 22.3818 0.0762434 22.7305 0.221675C23.0792 0.367107 23.3958 0.579797 23.6623 0.847601C23.9288 1.11541 24.14 1.43308 24.2837 1.78249C24.4274 2.13189 24.5009 2.50619 24.5 2.884V28L21.49 25.34L19.8 23.772L18 22.106L18.742 24.696H2.87001C2.4922 24.6951 2.11826 24.6198 1.76956 24.4743C1.42086 24.3289 1.10421 24.1162 0.83771 23.8484C0.571206 23.5806 0.360059 23.2629 0.216326 22.9135C0.072593 22.5641 -0.000911835 22.1898 8.53727e-06 21.812V2.884C-0.000911835 2.50619 0.072593 2.13189 0.216326 1.78249C0.360059 1.43308 0.571206 1.11541 0.83771 0.847601C1.10421 0.579797 1.42086 0.367107 1.76956 0.221675C2.11826 0.0762434 2.4922 0.000918136 2.87001 0L21.63 0ZM16.23 18.284C17.0634 18.305 17.8893 18.1221 18.6359 17.7513C19.3825 17.3804 20.0272 16.8328 20.514 16.156C20.4686 13.3178 19.7792 10.527 18.498 7.994C17.3705 7.10848 15.9959 6.59484 14.564 6.524L14.364 6.748C15.6388 7.08721 16.827 7.69324 17.85 8.526C16.5464 7.80747 15.1149 7.35089 13.636 7.182C12.6956 7.07837 11.7462 7.08777 10.808 7.21L10.57 7.238C9.47087 7.36298 8.39835 7.66065 7.39201 8.12C6.87401 8.358 6.56601 8.526 6.56601 8.526C7.6437 7.65158 8.90084 7.0254 10.248 6.692L10.108 6.524C8.6761 6.59484 7.3015 7.10848 6.17401 7.994C4.89278 10.527 4.20345 13.3178 4.15801 16.156C4.64087 16.8335 5.28284 17.3819 6.02742 17.7529C6.77201 18.124 7.59638 18.3064 8.42801 18.284C8.42801 18.284 8.94601 17.654 9.36601 17.122C8.38174 16.8738 7.51513 16.2894 6.91601 15.47L7.30801 15.708L7.36401 15.75L7.41901 15.782L7.43501 15.789L7.49001 15.82C7.81935 16.0019 8.16083 16.161 8.51201 16.296C9.1783 16.5583 9.86716 16.7591 10.57 16.896C11.7673 17.126 12.997 17.1308 14.196 16.91C14.8935 16.7886 15.5746 16.5873 16.226 16.31C16.7921 16.0964 17.3323 15.8193 17.836 15.484C17.2139 16.3213 16.3155 16.9115 15.3 17.15C15.72 17.682 16.224 18.284 16.224 18.284H16.23ZM9.72001 11.746C9.33143 11.7802 8.96976 11.9587 8.7063 12.2463C8.44284 12.534 8.2967 12.9099 8.2967 13.3C8.2967 13.6901 8.44284 14.066 8.7063 14.3537C8.96976 14.6413 9.33143 14.8198 9.72001 14.854C10.1148 14.8363 10.4864 14.6628 10.7534 14.3715C11.0203 14.0801 11.1608 13.6948 11.144 13.3C11.1535 13.1039 11.124 12.9079 11.0572 12.7233C10.9904 12.5387 10.8876 12.3692 10.7547 12.2246C10.6219 12.08 10.4617 11.9633 10.2834 11.8811C10.1051 11.799 9.91221 11.7531 9.71601 11.746H9.72001ZM14.83 11.746C14.5169 11.7186 14.2027 11.7864 13.9288 11.9406C13.6549 12.0948 13.4339 12.3282 13.2949 12.6101C13.1559 12.892 13.1052 13.2094 13.1497 13.5205C13.1941 13.8317 13.3315 14.1222 13.5439 14.354C13.7562 14.5857 14.0337 14.7479 14.3398 14.8193C14.6459 14.8907 14.9665 14.8679 15.2594 14.754C15.5524 14.64 15.8041 14.4403 15.9816 14.1808C16.1591 13.9214 16.254 13.6143 16.254 13.3C16.2623 13.1042 16.232 12.9087 16.1647 12.7246C16.0974 12.5405 15.9946 12.3715 15.862 12.2272C15.7293 12.0828 15.5696 11.9661 15.3918 11.8835C15.2141 11.801 15.0218 11.7542 14.826 11.746H14.83Z" fill="#6CC5AA"/>
</svg>
