<svg width="24" height="21" viewBox="0 0 24 21" fill="none" xmlns="http://www.w3.org/2000/svg">
<path d="M24 3.30884C23.1014 3.70709 22.1481 3.96833 21.172 4.08384C22.2006 3.46902 22.9702 2.50071 23.337 1.35984C22.3702 1.93237 21.3126 2.33551 20.21 2.55184C19.4681 1.76134 18.4862 1.23761 17.4164 1.0618C16.3466 0.885998 15.2487 1.06794 14.2929 1.57942C13.337 2.09091 12.5765 2.90338 12.1293 3.89094C11.682 4.8785 11.5729 5.98601 11.819 7.04184C9.86161 6.94421 7.94663 6.43607 6.19835 5.55039C4.45007 4.66471 2.90758 3.42129 1.671 1.90084C1.04148 2.98488 0.848566 4.26802 1.13149 5.48924C1.41441 6.71047 2.15192 7.77805 3.194 8.47484C2.41249 8.45028 1.64821 8.23907 0.965 7.85884C0.950098 9.00674 1.33651 10.1238 2.05751 11.0172C2.7785 11.9105 3.78882 12.5241 4.914 12.7518C4.18873 12.9488 3.42806 12.9775 2.69 12.8358C3.00503 13.8137 3.61776 14.6686 4.44253 15.2811C5.2673 15.8935 6.26286 16.233 7.29 16.2518C5.2262 17.8707 2.6043 18.6044 0 18.2918C2.25149 19.7385 4.87182 20.5064 7.548 20.5038C9.44482 20.5159 11.3241 20.1403 13.0706 19.4001C14.8171 18.6599 16.3939 17.5707 17.7044 16.1993C19.0148 14.8279 20.0313 13.2032 20.6914 11.4249C21.3514 9.64657 21.6413 7.75215 21.543 5.85784C22.5067 5.16066 23.3387 4.29754 24 3.30884Z" fill="#65B7A1"/>
</svg>
