<?xml version="1.0" standalone="no"?>
<!DOCTYPE svg PUBLIC "-//W3C//DTD SVG 20010904//EN"
 "http://www.w3.org/TR/2001/REC-SVG-20010904/DTD/svg10.dtd">
<svg version="1.0" xmlns="http://www.w3.org/2000/svg"
 width="100.000000pt" height="100.000000pt" viewBox="0 0 100.000000 100.000000"
 preserveAspectRatio="xMidYMid meet">
<metadata>
Created by potrace 1.14, written by Peter Selinger 2001-2017
</metadata>
<g transform="translate(0.000000,100.000000) scale(0.100000,-0.100000)"
fill="#000000" stroke="none">
<path d="M657 897 l-67 -42 0 -117 c0 -72 -4 -118 -11 -120 -6 -2 -9 -28 -7
-65 l3 -62 73 46 72 45 0 87 0 86 70 44 69 44 -37 26 c-20 15 -51 36 -67 48
l-31 21 -67 -41z"/>
<path d="M363 709 l-63 -42 0 -57 0 -58 -77 -50 -78 -49 5 -94 5 -93 72 -50
c116 -83 187 -131 195 -134 4 -2 8 107 8 241 l0 245 66 42 c37 23 62 45 58 49
-14 13 -123 91 -126 91 -2 0 -31 -19 -65 -41z m-123 -367 c54 -37 55 -38 58
-91 2 -29 -1 -51 -5 -50 -4 2 -34 22 -65 43 -57 38 -58 39 -58 87 0 27 3 49 8
48 4 0 32 -17 62 -37z"/>
<path d="M671 379 c-25 -16 -49 -33 -53 -37 -5 -5 16 -25 47 -45 l55 -37 0 75
c0 41 -1 75 -2 74 -2 0 -23 -14 -47 -30z"/>
</g>
</svg>
