<svg width="24" height="20" viewBox="0 0 24 20" fill="none" xmlns="http://www.w3.org/2000/svg">
<path fill-rule="evenodd" clip-rule="evenodd" d="M18.3841 19.7791C18.5427 19.892 18.7265 19.9643 18.9195 19.9896C19.1125 20.0149 19.3088 19.9924 19.4911 19.9241C19.6723 19.8556 19.8335 19.7429 19.96 19.5962C20.0864 19.4495 20.1742 19.2734 20.2151 19.0841C21.0841 15.0001 23.1921 4.66307 23.9831 0.948067C24.0123 0.810018 24.0035 0.666644 23.9577 0.533179C23.9119 0.399713 23.8309 0.281143 23.7231 0.190067C23.6144 0.0974473 23.4829 0.035618 23.3422 0.0109993C23.2015 -0.0136195 23.0568 -0.000130069 22.9231 0.0500668C18.7331 1.60007 5.8201 6.44707 0.542101 8.40007C0.378734 8.459 0.238229 8.56816 0.140743 8.71189C0.0432559 8.85561 -0.00620293 9.02653 -0.000539134 9.2001C0.00512466 9.37368 0.0656201 9.54101 0.172269 9.67808C0.278918 9.81514 0.42624 9.91491 0.593101 9.96307C2.9601 10.6711 6.0671 11.6561 6.0671 11.6561C6.0671 11.6561 7.5191 16.0411 8.2761 18.2711C8.32055 18.4093 8.39865 18.5343 8.50338 18.6348C8.60811 18.7354 8.73619 18.8083 8.8761 18.8471C9.01776 18.8839 9.16645 18.8843 9.30827 18.8481C9.4501 18.8119 9.58043 18.7403 9.6871 18.6401L12.7871 15.7171C12.7871 15.7171 16.3591 18.3361 18.3871 19.7791H18.3841ZM7.3741 11.1001L9.0531 16.6401L9.4261 13.1331L19.6111 3.94707C19.6634 3.90013 19.6959 3.83508 19.702 3.76508C19.7081 3.69508 19.6874 3.62537 19.6441 3.57007C19.6005 3.51464 19.5379 3.47739 19.4684 3.46556C19.3989 3.45373 19.3275 3.46817 19.2681 3.50607L7.3741 11.1001Z" fill="#65B7A1"/>
</svg>
